{"title":"Apne Paraye 1980 DvDrip 1.40GB AVI ~ Family | Comedy ~ [RdY]","uid":6484530,"size":1502326784,"categoryP":"video","categoryS":"movies","magnet":"?xt=urn:btih:d03a5eab627602d386e0fadf5f9f1b9461f36b0d&amp;dn=+Apne+Paraye+1980+DvDrip+1.40GB+AVI+%7E+Family+%7C+Comedy+%7E+%5BRdY%5D&amp;tr=udp%3A%2F%2Ftracker.openbittorrent.com%3A80&amp;tr=udp%3A%2F%2Fopen.demonii.com%3A1337&amp;tr=udp%3A%2F%2Ftracker.coppersurfer.tk%3A6969&amp;tr=udp%3A%2F%2Fexodus.desync.com%3A6969","seeders":0,"leechers":1,"uploader":"ilyas2000pk","files":-1,"time":1308616513,"description":"Amol Palekar ... Chandranath aka Chander \nShabana Azmi ... Sheila \nAshalata ... Sidheshwari \nGirish Karnad ... Advocate Harish \nUtpal Dutt ... Advocate \nBharati Achrekar ... Naintara \nMoonesha ... Neela \n \n\n\nComplete Name                    : Apne Paraye 1980 DvDrip 1.40GB AVI ~ Family | Comedy ~ [RdY]\nGeneral\nFormat                           : AVI\nFormat/Info                      : Audio Video Interleave\nFile size                        : 1.40 GiB\nDuration                         : 2h 11mn\nOverall bit rate                 : 1 525 Kbps\nWriting application              : VirtualDubMod 1.5.10.2 (build 2540/release)\nWriting library                  : VirtualDubMod build 2540/release\n\nVideo\nFormat                           : MPEG-4 Visual\nFormat profile                   : Streaming Video@L1\nFormat settings, BVOP            : Yes\nFormat settings, QPel            : No\nFormat settings, GMC             : No warppoints\nFormat settings, Matrix          : Default\nMuxing mode                      : Packed bitstream\nCodec ID                         : XVID\nCodec ID/Hint                    : XviD\nDuration                         : 2h 11mn\nBit rate                         : 1 289 Kbps\nWidth                            : 640 pixels\nHeight                           : 480 pixels\nDisplay aspect ratio             : 4/3\nFrame rate                       : 29.970 fps\nResolution                       : 24 bits\nColorimetry                      : 4:2:0\nScan type                        : Progressive\nBits/(Pixel*Frame)               : 0.140\nStream size                      : 1.18 GiB (85%)\nWriting library                  : XviD 1.1.2 (UTC 2006-11-01)\n\nAudio\nFormat                           : MPEG Audio\nCodec ID                         : 55\nCodec ID/Hint                    : MP3\nDuration                         : 2h 11mn\nBit rate                         : 224 Kbps\nChannel(s)                       : 2 channels\nSampling rate                    : 48.0 KHz\nStream size                      : 211 MiB (15%)\nAlignment                        : Aligned on interleaves\nInterleave, duration             : 33 ms (1.00 video frame)\nInterleave, preload duration     : 504 \n\n\n\n \nBasu Chatterjee ... Director \nLata Mangeshkar ... Singer \nAsha Bhosle ... Singer \nK.J. Yesudas ... Singer \nKishore Kumar ... Singer \nBappi Lahiri ... Music Director \nK.K. Mahajan ... Cinematography \nMushir Alam ... producer (as Mushir-Alam) \nMohammad Riaz ... producer (as Mushir-Alam) \n \n\n \n","torrent":{"xt":"urn:btih:d03a5eab627602d386e0fadf5f9f1b9461f36b0d","amp;dn":"+Apne+Paraye+1980+DvDrip+1.40GB+AVI+%7E+Family+%7C+Comedy+%7E+%5BRdY%5D","amp;tr":["udp%3A%2F%2Ftracker.openbittorrent.com%3A80","udp%3A%2F%2Fopen.demonii.com%3A1337","udp%3A%2F%2Ftracker.coppersurfer.tk%3A6969","udp%3A%2F%2Fexodus.desync.com%3A6969"],"infoHash":"d03a5eab627602d386e0fadf5f9f1b9461f36b0d","infoHashBuffer":{"type":"Buffer","data":[208,58,94,171,98,118,2,211,134,224,250,223,95,159,27,148,97,243,107,13]},"announce":[],"urlList":[]}}